<svg width="59" height="32" viewBox="0 0 59 32" fill="none" xmlns="http://www.w3.org/2000/svg">
<path d="M18.296 23.864C18.5733 23.864 18.7867 23.992 18.936 24.248C19.1067 24.504 19.192 24.856 19.192 25.304C19.192 26.1573 18.9893 26.8187 18.584 27.288C17.6027 28.4187 16.5893 29.3467 15.544 30.072C14.52 30.7973 13.3467 31.16 12.024 31.16C10.936 31.16 10.1147 30.8507 9.56 30.232C9.00533 29.592 8.728 28.6747 8.728 27.48C8.728 26.8827 8.87733 25.816 9.176 24.28C9.45333 22.936 9.592 22.008 9.592 21.496C9.592 21.1547 9.47467 20.984 9.24 20.984C8.96267 20.984 8.568 21.3467 8.056 22.072C7.544 22.776 7.032 23.7147 6.52 24.888C6.008 26.0613 5.592 27.2987 5.272 28.6C4.86667 30.3067 3.864 31.16 2.264 31.16C1.624 31.16 1.19733 30.936 0.984 30.488C0.792 30.0187 0.696 29.1867 0.696 27.992C0.696 27.3093 0.706667 26.7653 0.728 26.36L0.76 23.8C0.76 20.5147 1.09067 17.0907 1.752 13.528C2.43467 9.96533 3.42667 6.97867 4.728 4.568C6.05067 2.136 7.62933 0.919998 9.464 0.919998C10.4453 0.919998 11.2347 1.34667 11.832 2.2C12.4507 3.032 12.76 4.12 12.76 5.464C12.76 7.61867 12.1307 9.85867 10.872 12.184C9.61333 14.488 7.56533 17.1867 4.728 20.28C4.664 21.3893 4.632 22.5307 4.632 23.704C5.336 21.8907 6.11467 20.4187 6.968 19.288C7.84267 18.136 8.696 17.3147 9.528 16.824C10.3813 16.3333 11.16 16.088 11.864 16.088C13.2507 16.088 13.944 16.7813 13.944 18.168C13.944 19 13.7093 20.504 13.24 22.68C12.8347 24.536 12.632 25.7627 12.632 26.36C12.632 27.2133 12.9413 27.64 13.56 27.64C13.9867 27.64 14.488 27.384 15.064 26.872C15.6613 26.3387 16.4507 25.4853 17.432 24.312C17.688 24.0133 17.976 23.864 18.296 23.864ZM8.792 4.088C8.408 4.088 7.98133 4.64267 7.512 5.752C7.04267 6.84 6.584 8.32267 6.136 10.2C5.70933 12.056 5.35733 14.0827 5.08 16.28C6.40267 14.7227 7.49067 13.0267 8.344 11.192C9.21867 9.35733 9.656 7.69333 9.656 6.2C9.656 5.51733 9.58133 4.99467 9.432 4.632C9.28267 4.26933 9.06933 4.088 8.792 4.088ZM30.8705 23.864C31.1478 23.864 31.3612 23.992 31.5105 24.248C31.6812 24.504 31.7665 24.856 31.7665 25.304C31.7665 26.1573 31.5638 26.8187 31.1585 27.288C30.3692 28.248 29.2492 29.1333 27.7985 29.944C26.3692 30.7547 24.8332 31.16 23.1905 31.16C20.9505 31.16 19.2118 30.552 17.9745 29.336C16.7372 28.12 16.1185 26.456 16.1185 24.344C16.1185 22.872 16.4278 21.5067 17.0465 20.248C17.6652 18.968 18.5185 17.9547 19.6065 17.208C20.7158 16.4613 21.9638 16.088 23.3505 16.088C24.5878 16.088 25.5798 16.4613 26.3265 17.208C27.0732 17.9333 27.4465 18.9253 27.4465 20.184C27.4465 21.656 26.9132 22.9253 25.8465 23.992C24.8012 25.0373 23.0198 25.8693 20.5025 26.488C21.0358 27.4693 22.0492 27.96 23.5425 27.96C24.5025 27.96 25.5905 27.6293 26.8065 26.968C28.0438 26.2853 29.1105 25.4 30.0065 24.312C30.2625 24.0133 30.5505 23.864 30.8705 23.864ZM22.8065 19.224C22.0172 19.224 21.3452 19.6827 20.7905 20.6C20.2572 21.5173 19.9905 22.6267 19.9905 23.928V23.992C21.2492 23.6933 22.2412 23.2453 22.9665 22.648C23.6918 22.0507 24.0545 21.3573 24.0545 20.568C24.0545 20.1627 23.9372 19.8427 23.7025 19.608C23.4892 19.352 23.1905 19.224 22.8065 19.224ZM47.6288 23.864C47.9061 23.864 48.1194 23.992 48.2688 24.248C48.4394 24.504 48.5248 24.856 48.5248 25.304C48.5248 26.1573 48.3221 26.8187 47.9168 27.288C46.9781 28.3973 45.9434 29.3253 44.8128 30.072C43.7034 30.7973 42.4448 31.16 41.0368 31.16C39.9488 31.16 38.9781 30.9573 38.1248 30.552C37.2928 30.1467 36.6314 29.5707 36.1408 28.824C34.9248 30.36 33.4848 31.128 31.8208 31.128C30.6474 31.128 29.7194 30.7867 29.0368 30.104C28.3541 29.4213 28.0128 28.5147 28.0128 27.384C28.0128 26.3173 28.2581 25.4533 28.7488 24.792C29.2394 24.1307 29.9328 23.8 30.8288 23.8C31.5968 23.8 31.9808 24.088 31.9808 24.664C31.9808 24.8133 31.9594 25.08 31.9168 25.464C31.8528 26.232 31.8208 26.6693 31.8208 26.776C31.8208 27.416 32.0981 27.736 32.6528 27.736C33.0581 27.736 33.4421 27.5013 33.8048 27.032C34.1888 26.5413 34.4981 25.88 34.7328 25.048C34.9888 24.216 35.1168 23.2987 35.1168 22.296C35.1168 21.528 35.0208 20.888 34.8288 20.376C34.6368 19.8427 34.4021 19.576 34.1248 19.576C33.8901 19.576 33.7194 19.64 33.6128 19.768C33.5061 19.8747 33.3994 20.0667 33.2928 20.344C33.1648 20.6853 32.9941 20.9627 32.7808 21.176C32.5674 21.368 32.1941 21.464 31.6608 21.464C31.1914 21.464 30.8181 21.304 30.5408 20.984C30.2634 20.6427 30.1248 20.1307 30.1248 19.448C30.1248 18.36 30.4554 17.5067 31.1168 16.888C31.7781 16.2693 32.6314 15.96 33.6768 15.96C34.5728 15.96 35.3834 16.184 36.1088 16.632C36.8341 17.0587 37.3888 17.688 37.7728 18.52C38.4128 17.6667 39.1274 17.0267 39.9168 16.6C40.7274 16.1733 41.5168 15.96 42.2848 15.96C43.1168 15.96 43.7461 16.152 44.1728 16.536C44.6208 16.92 44.8448 17.5387 44.8448 18.392C44.8448 19.352 44.6634 20.1093 44.3008 20.664C43.9381 21.1973 43.5008 21.464 42.9888 21.464C42.5194 21.464 42.1994 21.368 42.0288 21.176C41.8581 20.984 41.7301 20.7067 41.6448 20.344C41.6021 20.088 41.5381 19.896 41.4528 19.768C41.3674 19.64 41.2181 19.576 41.0048 19.576C40.7488 19.576 40.4714 19.8213 40.1728 20.312C39.8954 20.7813 39.6501 21.4107 39.4368 22.2C39.2448 22.9893 39.1488 23.8107 39.1488 24.664C39.1488 25.6667 39.3834 26.4453 39.8528 27C40.3434 27.5333 41.0048 27.8 41.8368 27.8C42.6688 27.8 43.4474 27.5227 44.1728 26.968C44.9194 26.392 45.7834 25.5067 46.7648 24.312C47.0208 24.0133 47.3088 23.864 47.6288 23.864ZM49.3098 31.16C48.0938 31.16 47.1018 30.68 46.3338 29.72C45.5871 28.76 45.2138 27.5013 45.2138 25.944C45.2138 24.2373 45.6084 22.6267 46.3978 21.112C47.1871 19.576 48.2324 18.3493 49.5338 17.432C50.8564 16.4933 52.2538 16.024 53.7258 16.024C54.1951 16.024 54.5044 16.12 54.6538 16.312C54.8244 16.4827 54.9631 16.8027 55.0698 17.272C55.4751 17.1867 55.9231 17.144 56.4138 17.144C56.9258 17.144 57.3204 17.272 57.5978 17.528C57.8751 17.784 58.0138 18.1467 58.0138 18.616C58.0138 19.1067 57.9071 19.96 57.6938 21.176C57.4591 22.4773 57.2778 23.7253 57.1498 24.92C57.0218 26.0933 56.9578 27.416 56.9578 28.888C56.9578 29.6987 56.7871 30.2853 56.4458 30.648C56.1258 30.9893 55.5924 31.16 54.8458 31.16C54.1204 31.16 53.5764 30.9893 53.2138 30.648C52.8724 30.2853 52.7018 29.7093 52.7018 28.92L52.7338 28.408C52.0724 30.2427 50.9311 31.16 49.3098 31.16ZM50.5578 27.928C51.1551 27.928 51.6991 27.512 52.1898 26.68C52.6804 25.848 53.1178 24.3653 53.5017 22.232L54.1098 19C53.2351 19.0213 52.4244 19.3627 51.6778 20.024C50.9311 20.664 50.3338 21.5173 49.8858 22.584C49.4378 23.6507 49.2138 24.7813 49.2138 25.976C49.2138 26.616 49.3311 27.1067 49.5658 27.448C49.8218 27.768 50.1524 27.928 50.5578 27.928Z" fill="url(#paint0_linear)"/>
<defs>
<linearGradient id="paint0_linear" x1="-1" y1="-11" x2="61.927" y2="41.491" gradientUnits="userSpaceOnUse">
<stop stop-color="#E61771"/>
<stop offset="1" stop-color="#DF3247"/>
</linearGradient>
</defs>
</svg>
