<svg width="50" height="50" viewBox="0 0 50 50" fill="current" xmlns="http://www.w3.org/2000/svg">
<path d="M38.855 37.032C40.4942 38.0565 40.9925 40.2158 39.968 41.855C38.9435 43.4942 36.7842 43.9925 35.145 42.968L38.855 37.032ZM13 25L11.145 27.968C10.1217 27.3284 9.5 26.2068 9.5 25C9.5 23.7932 10.1217 22.6716 11.145 22.032L13 25ZM35.145 7.03201C36.7842 6.00752 38.9435 6.50583 39.968 8.145C40.9925 9.78418 40.4942 11.9435 38.855 12.968L35.145 7.03201ZM35.145 42.968L11.145 27.968L14.855 22.032L38.855 37.032L35.145 42.968ZM11.145 22.032L35.145 7.03201L38.855 12.968L14.855 27.968L11.145 22.032Z" fill="current"/>
</svg>
