<svg width="50" height="50" viewBox="0 0 50 50" fill="none" xmlns="http://www.w3.org/2000/svg">
<path d="M22.7619 9.2291C18.1089 10.3393 15.2279 14.871 13.4937 19.8296C11.4663 25.6264 10.8 32.1133 10.8 36.7072C10.8 37.1283 10.8685 37.4954 11.0833 37.757C11.3057 38.0279 11.6472 38.1423 12.0874 38.1423H20.5917C20.7031 40.4023 22.5736 42.2 24.8641 42.2C27.1546 42.2 29.025 40.4023 29.1365 38.1423H29.139H29.1472H29.1556H29.1641H29.1728H29.1816H29.1906H29.1998H29.209H29.2185H29.2281H29.2378H29.2477H29.2577H29.2679H29.2782H29.2887H29.2993H29.3101H29.321H29.332H29.3432H29.3546H29.366H29.3776H29.3894H29.4013H29.4133H29.4255H29.4378H29.4502H29.4628H29.4755H29.4883H29.5013H29.5144H29.5276H29.541H29.5545H29.5681H29.5819H29.5958H29.6098H29.6239H29.6382H29.6526H29.6671H29.6817H29.6965H29.7114H29.7264H29.7415H29.7567H29.7721H29.7876H29.8032H29.8189H29.8347H29.8507H29.8667H29.8829H29.8992H29.9156H29.9321H29.9488H29.9655H29.9824H29.9993H30.0164H30.0336H30.0509H30.0682H30.0857H30.1033H30.121H30.1389H30.1568H30.1748H30.1929H30.2111H30.2294H30.2479H30.2664H30.285H30.3037H30.3225H30.3414H30.3604H30.3795H30.3987H30.418H30.4373H30.4568H30.4764H30.496H30.5158H30.5356H30.5555H30.5755H30.5956H30.6157H30.636H30.6563H30.6768H30.6973H30.7179H30.7386H30.7593H30.7801H30.8011H30.822H30.8431H30.8643H30.8855H30.9068H30.9282H30.9496H30.9711H30.9927H31.0144H31.0362H31.058H31.0799H31.1018H31.1238H31.1459H31.1681H31.1903H31.2126H31.235H31.2574H31.2799H31.3024H31.325H31.3477H31.3704H31.3932H31.4161H31.439H31.462H31.485H31.5081H31.5312H31.5544H31.5777H31.601H31.6243H31.6478H31.6712H31.6947H31.7183H31.7419H31.7656H31.7893H31.813H31.8369H31.8607H31.8846H31.9085H31.9325H31.9566H31.9806H32.0048H32.0289H32.0531H32.0773H32.1016H32.1259H32.1503H32.1747H32.1991H32.2236H32.248H32.2726H32.2971H32.3217H32.3464H32.371H32.3957H32.4204H32.4452H32.4699H32.4948H32.5196H32.5444H32.5693H32.5942H32.6192H32.6441H32.6691H32.6941H32.7191H32.7442H32.7692H32.7943H32.8194H32.8445H32.8696H32.8948H32.92H32.9451H32.9703H32.9955H33.0208H33.046H33.0712H33.0965H33.1218H33.147H33.1723H33.1976H33.2229H33.2482H33.2735H33.2988H33.3242H33.3495H33.3748H33.4001H33.4255H33.4508H33.4761H33.5014H33.5268H33.5521H33.5774H33.6027H33.628H33.6534H33.6787H33.704H33.7292H33.7545H33.7798H33.8051H33.8303H33.8556H33.8808H33.906H33.9312H33.9564H33.9816H34.0067H34.0319H34.057H34.0821H34.1072H34.1323H34.1574H34.1824H34.2074H34.2324H34.2574H34.2824H34.3073H34.3322H34.3571H34.3819H34.4067H34.4316H34.4563H34.4811H34.5058H34.5305H34.5551H34.5797H34.6043H34.6289H34.6534H34.6779H34.7024H34.7268H34.7512H34.7755H34.7998H34.8241H34.8483H34.8725H34.8967H34.9208H34.9448H34.9689H34.9929H35.0168H35.0407H35.0645H35.0883H35.1121H35.1358H35.1595H35.1831H35.2066H35.2301H35.2536H35.277H35.3003H35.3236H35.3469H35.3701H35.3932H35.4163H35.4393H35.4623H35.4852H35.508H35.5308H35.5536H35.5762H35.5988H35.6214H35.6438H35.6663H35.6886H35.7109H35.7331H35.7553H35.7773H35.7994H35.8213H35.8432H35.865H35.8867H35.9084H35.93H35.9515H35.9729H35.9943H36.0156H36.0368H36.0579H36.079H36.1H36.1209H36.1417H36.1625H36.1831H36.2037H36.2242H36.2446H36.265H36.2852H36.3054H36.3254H36.3454H36.3653H36.3851H36.4049H36.4245H36.4441H36.4635H36.4829H36.5021H36.5213H36.5404H36.5594H36.5783H36.5971H36.6158H36.6344H36.6529H36.6713H36.6896H36.7078H36.7259H36.7439H36.7618H36.7796H36.7973H36.8149H36.8324H36.8498H36.867H36.8842H36.9012H36.9182H36.935H36.9518H36.9684H36.9849H37.0013H37.0175H37.0337H37.0498H37.0657H37.0815H37.0972H37.1128H37.1283H37.1436H37.1589H37.174H37.189H37.2038H37.2186H37.2332H37.2477H37.2621H37.2763H37.2904H37.3044H37.3183H37.332H37.3456H37.3591H37.3725H37.3857H37.3988H37.4117H37.4246H37.4373H37.4498H37.4622H37.4745H37.4867H37.4987H37.5106H37.5223H37.5339H37.5453H37.5567H37.5678H37.5789H37.5897H37.6005H37.6111H37.6215H37.6319H37.642H37.652H37.6619H37.6716H37.6812H37.6906H37.6999H37.709H37.718H37.7268H37.7354H37.7439H37.7523H37.7605H37.7685H37.7764H37.7841H37.7917H37.7991H37.8063H37.8134H37.8203H37.8271H37.8337H37.8401H37.8464H37.8525H37.8584H37.8642H37.8698H37.8753H37.8805H37.8856H37.8905H37.8953H37.8999H37.9043H37.9086H37.9126C38.2732 38.1423 38.605 38.0712 38.8456 37.8529C39.0901 37.6309 39.2 37.2943 39.2 36.8566C39.2 32.2632 38.5338 25.6268 36.5063 19.8296C34.8056 14.9669 32.0027 10.5158 27.5072 9.29765C27.5095 9.2565 27.5107 9.21442 27.5107 9.17139C27.5107 7.86142 26.4472 6.8 25.136 6.8C23.8247 6.8 22.7612 7.86141 22.7612 9.17139C22.7612 9.19082 22.7614 9.21005 22.7619 9.2291ZM25 8.97139C24.6543 8.97139 24.3164 8.98862 23.9862 9.02227C24.0595 8.45388 24.5461 8.01427 25.136 8.01427C25.7369 8.01427 26.2305 8.47049 26.2893 9.05439C25.8722 8.99963 25.4426 8.97139 25 8.97139ZM27.3736 38.1423C27.265 39.4306 26.1832 40.4429 24.8641 40.4429C23.545 40.4429 22.4632 39.4306 22.3546 38.1423H27.3736ZM37.1582 36.1137H12.8418C12.9336 31.7008 13.6252 25.6051 15.4112 20.4985C17.3695 14.899 20.4395 10.9999 25 10.9999C29.5605 10.9999 32.6305 14.899 34.5888 20.4985C36.3748 25.6051 37.0664 31.7008 37.1582 36.1137Z" fill="#181818" stroke="#181818" stroke-width="0.4" stroke-linecap="round" stroke-linejoin="round"/>
</svg>
