<svg width="50" height="50" viewBox="0 0 50 50" fill="current" xmlns="http://www.w3.org/2000/svg">
<path fill-rule="evenodd" clip-rule="evenodd" d="M25.8045 11.8711C25.8045 13.744 24.4746 15.3062 22.7076 15.6649V21.2168C24.9162 21.5327 26.6952 23.1802 27.2054 25.3199L32.4564 24.5559C32.5569 22.7557 33.9114 21.2147 35.7647 20.945C37.8804 20.6372 39.845 22.1028 40.1529 24.2185C40.4607 26.3342 38.9951 28.2988 36.8794 28.6067C35.0261 28.8763 33.2887 27.7851 32.6793 26.0882L27.3457 26.8642C27.1987 29.726 24.8317 32.0011 21.9334 32.0011C20.4376 32.0011 19.0833 31.3951 18.1027 30.4153L16.1057 34.9652C17.5796 36.0038 18.1696 37.9687 17.4169 39.6837C16.5576 41.6414 14.2741 42.5319 12.3163 41.6726C10.3586 40.8134 9.46813 38.5298 10.3274 36.5721C11.08 34.8572 12.9257 33.9612 14.6878 34.3429L17.056 28.9472C16.7086 28.2323 16.5138 27.4297 16.5138 26.5815C16.5138 23.8512 18.5327 21.5925 21.1592 21.2168V15.6649C19.3922 15.3062 18.0622 13.744 18.0622 11.8711C18.0622 9.73317 19.7954 8 21.9334 8C24.0714 8 25.8045 9.73317 25.8045 11.8711ZM21.9334 14.1938C23.2162 14.1938 24.2561 13.1539 24.2561 11.8711C24.2561 10.5884 23.2162 9.54846 21.9334 9.54846C20.6506 9.54846 19.6107 10.5884 19.6107 11.8711C19.6107 13.1539 20.6506 14.1938 21.9334 14.1938ZM25.8045 26.5815C25.8045 28.7195 24.0714 30.4526 21.9334 30.4526C19.7954 30.4526 18.0622 28.7195 18.0622 26.5815C18.0622 24.4435 19.7954 22.7104 21.9334 22.7104C24.0714 22.7104 25.8045 24.4435 25.8045 26.5815ZM36.6565 27.0743C35.387 27.259 34.2082 26.3797 34.0236 25.1103C33.8389 23.8408 34.7182 22.662 35.9876 22.4774C37.257 22.2927 38.4358 23.172 38.6205 24.4414C38.8052 25.7108 37.9259 26.8896 36.6565 27.0743ZM14.8056 36.001C13.631 35.4855 12.2608 36.0198 11.7453 37.1944C11.2297 38.369 11.764 39.7392 12.9387 40.2547C14.1133 40.7703 15.4834 40.236 15.999 39.0613C16.5145 37.8867 15.9802 36.5166 14.8056 36.001Z" fill="current"/>
</svg>
