<svg width="50" height="50" viewBox="0 0 50 50" fill="current" xmlns="http://www.w3.org/2000/svg">
  <path d="M15.7071 14.2929C15.3166 13.9024 14.6834 13.9024 14.2929 14.2929C13.9024 14.6834 13.9024 15.3166 14.2929 15.7071L23.4854 24.8996L14.293 34.0919C13.9025 34.4825 13.9025 35.1156 14.293 35.5062C14.6836 35.8967 15.3167 35.8967 15.7073 35.5061L24.8996 26.3138L34.0919 35.5061C34.4824 35.8966 35.1156 35.8966 35.5061 35.5061C35.8966 35.1156 35.8966 34.4824 35.5061 34.0919L26.3138 24.8996L35.5062 15.7072C35.8968 15.3166 35.8968 14.6835 35.5062 14.2929C35.1157 13.9024 34.4826 13.9024 34.092 14.2929L24.8996 23.4854L15.7071 14.2929Z" fill="current" />
</svg>
