<svg width="50" height="50" viewBox="0 0 50 50" fill="current" xmlns="http://www.w3.org/2000/svg">
<path fill-rule="evenodd" clip-rule="evenodd" d="M28.3367 7.27436C26.8866 4.24188 22.5696 4.24188 21.1195 7.27436L20.7298 8.08913C19.8479 9.93334 17.7174 10.8158 15.7898 10.1354L14.9381 9.83476C11.7684 8.71587 8.71587 11.7684 9.83476 14.9381L10.1354 15.7898C10.8158 17.7174 9.93334 19.8479 8.08913 20.7298L7.27436 21.1195C4.24188 22.5696 4.24188 26.8866 7.27436 28.3367L8.08913 28.7263C9.93334 29.6082 10.8158 31.7388 10.1354 33.6664L9.83476 34.5181C8.71587 37.6877 11.7684 40.7403 14.9381 39.6214L15.7898 39.3208C17.7174 38.6403 19.8479 39.5228 20.7298 41.3671L21.1195 42.1818C22.5696 45.2143 26.8866 45.2143 28.3367 42.1818L28.7263 41.3671C29.6082 39.5228 31.7388 38.6403 33.6664 39.3208L34.5181 39.6214C37.6877 40.7403 40.7403 37.6877 39.6214 34.5181L39.3208 33.6664C38.6403 31.7388 39.5228 29.6082 41.3671 28.7263L42.1818 28.3367C45.2143 26.8866 45.2143 22.5696 42.1818 21.1195L41.3671 20.7298C39.5228 19.8479 38.6403 17.7174 39.3208 15.7898L39.6214 14.9381C40.7403 11.7684 37.6877 8.71587 34.5181 9.83476L33.6664 10.1354C31.7388 10.8158 29.6082 9.93334 28.7263 8.08913L28.3367 7.27436ZM24.7281 36.7281C31.3555 36.7281 36.7281 31.3555 36.7281 24.7281C36.7281 18.1007 31.3555 12.7281 24.7281 12.7281C18.1007 12.7281 12.7281 18.1007 12.7281 24.7281C12.7281 31.3555 18.1007 36.7281 24.7281 36.7281Z" fill="current"/>
</svg>
