<svg width="50" height="50" viewBox="0 0 50 50" fill="current" xmlns="http://www.w3.org/2000/svg">
  <path fill-rule="evenodd" clip-rule="evenodd" d="M28.2925 9.07513C26.9694 6.30829 23.0306 6.30829 21.7075 9.07513L21.352 9.81853C20.5473 11.5012 18.6034 12.3064 16.8446 11.6855L16.0676 11.4113C13.1756 10.3904 10.3904 13.1756 11.4113 16.0676L11.6855 16.8446C12.3064 18.6034 11.5012 20.5473 9.81853 21.352L9.07513 21.7075C6.30829 23.0306 6.30829 26.9694 9.07513 28.2925L9.81853 28.648C11.5012 29.4527 12.3064 31.3966 11.6855 33.1554L11.4113 33.9324C10.3904 36.8244 13.1756 39.6096 16.0676 38.5887L16.8446 38.3145C18.6034 37.6936 20.5473 38.4988 21.352 40.1815L21.7075 40.9249C23.0306 43.6917 26.9694 43.6917 28.2925 40.9249L28.648 40.1815C29.4527 38.4988 31.3966 37.6936 33.1554 38.3145L33.9324 38.5887C36.8244 39.6096 39.6096 36.8244 38.5887 33.9324L38.3145 33.1554C37.6936 31.3966 38.4988 29.4527 40.1815 28.648L40.9249 28.2925C43.6917 26.9694 43.6917 23.0306 40.9249 21.7075L40.1815 21.352C38.4988 20.5473 37.6936 18.6034 38.3145 16.8446L38.5887 16.0676C39.6096 13.1756 36.8244 10.3904 33.9324 11.4113L33.1554 11.6855C31.3966 12.3064 29.4527 11.5012 28.648 9.81853L28.2925 9.07513ZM25 35.9489C31.0469 35.9489 35.9489 31.0469 35.9489 25C35.9489 18.9531 31.0469 14.0511 25 14.0511C18.9531 14.0511 14.0511 18.9531 14.0511 25C14.0511 31.0469 18.9531 35.9489 25 35.9489Z" fill="current" />
</svg>
