<svg width="50" height="50" viewBox="0 0 50 50" fill="current" xmlns="http://www.w3.org/2000/svg">
  <path fill-rule="evenodd" clip-rule="evenodd" d="M21.6678 9.66345C22.47 6.11218 27.53 6.11218 28.3322 9.66345C28.8521 11.965 31.4933 13.0591 33.4884 11.7992C36.5667 9.85531 40.1447 13.4333 38.2008 16.5116C36.9409 18.5067 38.035 21.1479 40.3365 21.6678C43.8878 22.47 43.8878 27.53 40.3365 28.3322C38.035 28.8521 36.9409 31.4933 38.2008 33.4884C40.1447 36.5667 36.5667 40.1447 33.4884 38.2008C31.4933 36.9409 28.8521 38.035 28.3322 40.3365C27.53 43.8878 22.47 43.8878 21.6678 40.3365C21.1479 38.035 18.5067 36.9409 16.5116 38.2008C13.4333 40.1447 9.85531 36.5667 11.7992 33.4884C13.0591 31.4933 11.965 28.8521 9.66345 28.3322C6.11218 27.53 6.11218 22.47 9.66345 21.6678C11.965 21.1479 13.0591 18.5067 11.7992 16.5116C9.85531 13.4333 13.4333 9.85531 16.5116 11.7992C18.5067 13.0591 21.1479 11.965 21.6678 9.66345ZM35 25C35 30.5228 30.5228 35 25 35C19.4772 35 15 30.5228 15 25C15 19.4772 19.4772 15 25 15C30.5228 15 35 19.4772 35 25ZM25 30C27.7614 30 30 27.7614 30 25C30 22.2386 27.7614 20 25 20C22.2386 20 20 22.2386 20 25C20 27.7614 22.2386 30 25 30Z" fill="current" />
</svg>
