<svg width="50" height="50" viewBox="0 0 50 50" fill="none" xmlns="http://www.w3.org/2000/svg">
<path d="M20.4471 15.3555C21.5395 12.2354 24.51 10 28 10C32.4183 10 36 13.5817 36 18C36 18.6919 35.9124 19.3618 35.7482 20L35.5083 20.9325L36.431 21.2075C38.4961 21.823 40 23.7372 40 26C40 28.7614 37.7614 31 35 31H31V33H35C38.866 33 42 29.866 42 26C42 23.1557 40.3043 20.7097 37.8703 19.614C37.9557 19.0881 38 18.5489 38 18C38 12.4772 33.5228 8 28 8C23.8971 8 20.3735 10.4704 18.8314 14.0023C15.913 14.0829 13.5154 16.2473 13.0731 19.0608C9.64523 19.5143 7 22.4482 7 26C7 29.866 10.134 33 14 33H16V31H14C11.2386 31 9 28.7614 9 26C9 23.2386 11.2386 21 14 21H15V20C15 17.7909 16.7909 16 19 16C19.1366 16 19.2713 16.0068 19.4039 16.0201L20.187 16.0983L20.4471 15.3555Z" fill="#181818"/>
<path d="M26.5 25C26.5 24.7239 26.2761 24.5 26 24.5C25.7239 24.5 25.5 24.7239 25.5 25V40.7929L23.1716 38.4645C22.9763 38.2692 22.6597 38.2692 22.4645 38.4645C22.2692 38.6597 22.2692 38.9763 22.4645 39.1716L25.6464 42.3536C25.8417 42.5488 26.1583 42.5488 26.3536 42.3536L29.5355 39.1716C29.7308 38.9763 29.7308 38.6597 29.5355 38.4645C29.3403 38.2692 29.0237 38.2692 28.8284 38.4645L26.5 40.7929V25Z" fill="#181818"/>
</svg>
