<svg width="50" height="50" viewBox="0 0 50 50" fill="current" xmlns="http://www.w3.org/2000/svg">
  <path d="M23.5637 10.3965C24.2729 9.86784 25.2451 9.86784 25.9543 10.3965L40.7093 21.3952C42.2527 22.5457 41.4391 24.9987 39.5141 24.9987H37.759V38.0066C37.759 39.1112 36.8635 40.0066 35.759 40.0066L29 40.0066V32.0066C29 30.902 28.1046 30.0066 27 30.0066H23C21.8954 30.0066 21 30.902 21 32.0066V40.0066L13.759 40.0066C12.6544 40.0066 11.759 39.1111 11.759 38.0066V24.9987H10.0039C8.07887 24.9987 7.26518 22.5457 8.80858 21.3952L23.5637 10.3965Z" fill="current" />
</svg>
