<svg width="50" height="50" viewBox="0 0 50 50" fill="current" xmlns="http://www.w3.org/2000/svg">
<path fill-rule="evenodd" clip-rule="evenodd" d="M31.0947 41C34.1362 41 36.6018 37.866 36.6018 34V16C36.6018 12.134 34.1362 9 31.0947 9C28.0532 9 25.5876 12.134 25.5876 16V19H23.2275V16C23.2275 10.4772 26.7497 6 31.0947 6C35.4397 6 38.9619 10.4772 38.9619 16V34C38.9619 39.5228 35.4397 44 31.0947 44C26.7497 44 23.2275 39.5228 23.2275 34V30H25.5876V34C25.5876 37.866 28.0532 41 31.0947 41ZM12.2929 24.2929C11.9024 24.6834 11.9024 25.3166 12.2929 25.7071L18.6569 32.0711C19.0474 32.4616 19.6805 32.4616 20.0711 32.0711C20.4616 31.6805 20.4616 31.0474 20.0711 30.6569L15.4142 26H29.5212C30.0735 26 30.5212 25.5523 30.5212 25C30.5212 24.4477 30.0735 24 29.5212 24H15.4142L20.0711 19.3431C20.4616 18.9526 20.4616 18.3195 20.0711 17.9289C19.6805 17.5384 19.0474 17.5384 18.6569 17.9289L12.2929 24.2929Z" fill="current"/>
</svg>
