<svg width="50" height="50" viewBox="0 0 50 50" fill="current" xmlns="http://www.w3.org/2000/svg">
  <path fill-rule="evenodd" clip-rule="evenodd" d="M7 25C7 15.0589 15.0589 7 25 7C34.9411 7 43 15.0589 43 25C43 34.9411 34.9411 43 25 43C15.0589 43 7 34.9411 7 25ZM14 25C14 23.3431 15.3431 22 17 22H21.9996V16.9999C21.9996 15.343 23.3427 13.9999 24.9996 13.9999C26.6564 13.9999 27.9996 15.343 27.9996 16.9999V22H33C34.6569 22 36 23.3431 36 25C36 26.6569 34.6569 28 33 28H27.9996V32.9999C27.9996 34.6567 26.6564 35.9999 24.9996 35.9999C23.3427 35.9999 21.9996 34.6567 21.9996 32.9999V28H17C15.3431 28 14 26.6569 14 25Z" fill="current" />
</svg>
