<svg width="50" height="50" viewBox="0 0 50 50" fill="current" xmlns="http://www.w3.org/2000/svg">
  <path fill-rule="evenodd" clip-rule="evenodd" d="M43 25C43 34.9411 34.9411 43 25 43C15.0589 43 7 34.9411 7 25C7 15.0589 15.0589 7 25 7C34.9411 7 43 15.0589 43 25ZM30.5 17.75C30.5 20.9257 27.9256 23.5 24.75 23.5C21.5744 23.5 19 20.9257 19 17.75C19 14.5743 21.5744 12 24.75 12C27.9256 12 30.5 14.5743 30.5 17.75ZM14.0338 32C13.8671 31.1667 14.2338 29.2 17.0338 28C20.5338 26.5 23.0337 26 25.0337 26C27.0337 26 31.0337 26.5 33.0337 28C35.0337 29.5 36.0337 30.5 36.0337 32C36.0337 33.5 31.5337 38 25.0337 38C19.8337 38 14.5337 33.5 14.0338 32Z" fill="current" />
</svg>
