<svg width="50" height="50" viewBox="0 0 50 50" fill="none" xmlns="http://www.w3.org/2000/svg">
<path fill-rule="evenodd" clip-rule="evenodd" d="M28.894 31.8233C26.9965 33.0114 24.753 33.6983 22.3491 33.6983C15.5289 33.6983 10 28.1694 10 21.3491C10 14.5289 15.5289 9 22.3491 9C29.1694 9 34.6983 14.5289 34.6983 21.3491C34.6983 24.652 33.4016 27.652 31.2896 29.8679L39.5944 38.931C40.1704 39.5596 40.1278 40.536 39.4992 41.112C38.8707 41.688 37.8942 41.6453 37.3183 41.0168L28.894 31.8233ZM31.611 21.3491C31.611 26.4643 27.4643 30.611 22.3491 30.611C17.234 30.611 13.0873 26.4643 13.0873 21.3491C13.0873 16.234 17.234 12.0873 22.3491 12.0873C27.4643 12.0873 31.611 16.234 31.611 21.3491Z" fill="#181818"/>
</svg>
