<svg width="50" height="50" viewBox="0 0 50 50" fill="current" xmlns="http://www.w3.org/2000/svg">
  <path d="M23.8347 8.5863C24.2015 7.45748 25.7985 7.45748 26.1653 8.5863L29.2152 17.9731C29.3792 18.4779 29.8497 18.8197 30.3805 18.8197H40.2503C41.4372 18.8197 41.9307 20.3385 40.9704 21.0361L32.9856 26.8374C32.5562 27.1494 32.3765 27.7025 32.5405 28.2073L35.5904 37.594C35.9572 38.7229 34.6652 39.6615 33.705 38.9639L25.7202 33.1626C25.2907 32.8506 24.7093 32.8506 24.2798 33.1626L16.295 38.9639C15.3348 39.6615 14.0428 38.7229 14.4096 37.594L17.4595 28.2073C17.6235 27.7025 17.4438 27.1494 17.0144 26.8374L9.02956 21.0361C8.06933 20.3385 8.56282 18.8197 9.74973 18.8197H19.6195C20.1503 18.8197 20.6208 18.4779 20.7848 17.9731L23.8347 8.5863Z" fill="current" />
</svg>
