<svg width="50" height="50" viewBox="0 0 50 50" fill="current" xmlns="http://www.w3.org/2000/svg">
  <path d="M33.1 25C33.1 29.4735 29.4735 33.1 25 33.1C20.5265 33.1 16.9 29.4735 16.9 25C16.9 20.5265 20.5265 16.9 25 16.9C29.4735 16.9 33.1 20.5265 33.1 25Z" fill="current" />
  <path fill-rule="evenodd" clip-rule="evenodd" d="M29.3259 14.5565L25 7L20.6741 14.5565L12.2721 12.2721L14.5565 20.6741L7 25L14.5565 29.3259L12.2721 37.7279L20.6741 35.4435L25 43L29.3259 35.4435L37.7279 37.7279L35.4435 29.3259L43 25L35.4435 20.6741L37.7279 12.2721L29.3259 14.5565ZM34 25C34 29.9706 29.9706 34 25 34C20.0294 34 16 29.9706 16 25C16 20.0294 20.0294 16 25 16C29.9706 16 34 20.0294 34 25Z" fill="current" />
</svg>
