<svg width="354" height="344" viewBox="0 0 354 344" fill="none" xmlns="http://www.w3.org/2000/svg">
  <path d="M33.69 78.8801C18.37 119.69 31.6 174.78 55.27 217.88C116.27 329.78 264.71 266.51 262.15 215.69C265.63 167.21 222.03 152.81 207.24 125.63C124.42 -27.7899 46 44.4701 33.69 78.8801Z" fill="#E51771" />
  <path opacity="0.9" d="M33.69 78.8801C18.37 119.69 31.6 174.78 55.27 217.88C116.27 329.78 264.71 266.51 262.15 215.69C265.63 167.21 222.03 152.81 207.24 125.63C124.42 -27.7899 46 44.4701 33.69 78.8801Z" fill="white" />
  <path d="M76.68 220.64H15.83V193.17L76.68 120.83H105.8V194.73H120.89V220.64H105.8V243.12H76.68V220.64ZM76.68 194.73V156.89L44.52 194.73H76.68Z" fill="#E51771" />
  <path d="M131.3 182.51C131.3 159.65 135.413 143.65 143.64 134.51C151.867 125.37 164.403 120.803 181.25 120.81C189.337 120.81 195.98 121.81 201.18 123.81C205.904 125.512 210.229 128.163 213.89 131.6C216.976 134.546 219.589 137.949 221.64 141.69C223.669 145.596 225.198 149.742 226.19 154.03C228.451 163.191 229.579 172.594 229.55 182.03C229.55 203.843 225.86 219.807 218.48 229.92C211.1 240.033 198.39 245.093 180.35 245.1C170.23 245.1 162.053 243.487 155.82 240.26C149.537 236.981 144.244 232.082 140.49 226.07C137.59 221.643 135.333 215.587 133.72 207.9C132.045 199.542 131.234 191.034 131.3 182.51V182.51ZM164.44 182.59C164.44 197.923 165.79 208.38 168.49 213.96C171.19 219.54 175.113 222.343 180.26 222.37C181.893 222.388 183.514 222.082 185.028 221.469C186.542 220.857 187.919 219.949 189.08 218.8C191.573 216.42 193.407 212.66 194.58 207.52C195.753 202.38 196.34 194.38 196.34 183.52C196.34 167.56 194.987 156.83 192.28 151.33C189.573 145.83 185.513 143.083 180.1 143.09C174.58 143.09 170.58 145.893 168.1 151.5C165.62 157.107 164.4 167.47 164.44 182.59Z" fill="#E51771" />
  <path d="M300.74 220.64H239.89V193.17L300.74 120.83H329.86V194.73H345V220.64H329.86V243.12H300.74V220.64ZM300.74 194.73V156.89L268.59 194.73H300.74Z" fill="#E51771" />
  <g opacity="0.3">
    <path opacity="0.3" d="M130 78.62C130 78.9903 129.89 79.3522 129.684 79.66C129.478 79.9677 129.186 80.2074 128.843 80.3486C128.501 80.4899 128.124 80.5263 127.761 80.4533C127.398 80.3804 127.065 80.2013 126.804 79.9387C126.543 79.6762 126.366 79.3421 126.295 78.9787C126.224 78.6153 126.262 78.239 126.405 77.8975C126.548 77.5559 126.79 77.2646 127.098 77.0603C127.407 76.856 127.77 76.748 128.14 76.75C128.385 76.75 128.628 76.7985 128.854 76.8926C129.08 76.9867 129.286 77.1246 129.459 77.2983C129.632 77.4721 129.768 77.6783 129.861 77.9052C129.954 78.132 130.001 78.3749 130 78.62V78.62Z" fill="#E51771" />
    <path opacity="0.3" d="M1.96999 150.45C2.69901 150.45 3.28999 149.859 3.28999 149.13C3.28999 148.401 2.69901 147.81 1.96999 147.81C1.24098 147.81 0.649994 148.401 0.649994 149.13C0.649994 149.859 1.24098 150.45 1.96999 150.45Z" fill="#E51771" />
    <path opacity="0.3" d="M220.05 343.22C221.094 343.22 221.94 342.374 221.94 341.33C221.94 340.286 221.094 339.44 220.05 339.44C219.006 339.44 218.16 340.286 218.16 341.33C218.16 342.374 219.006 343.22 220.05 343.22Z" fill="#E51771" />
    <path opacity="0.3" d="M265.5 266.32C266.229 266.32 266.82 265.729 266.82 265C266.82 264.271 266.229 263.68 265.5 263.68C264.771 263.68 264.18 264.271 264.18 265C264.18 265.729 264.771 266.32 265.5 266.32Z" fill="#E51771" />
    <path opacity="0.3" d="M353.17 28.62C353.17 28.8811 353.093 29.1363 352.948 29.3534C352.803 29.5705 352.596 29.7397 352.355 29.8396C352.114 29.9395 351.849 29.9656 351.592 29.9147C351.336 29.8637 351.101 29.738 350.917 29.5534C350.732 29.3688 350.606 29.1336 350.555 28.8776C350.504 28.6215 350.531 28.3561 350.631 28.1149C350.73 27.8737 350.9 27.6676 351.117 27.5225C351.334 27.3775 351.589 27.3 351.85 27.3C352.2 27.3 352.536 27.4391 352.783 27.6867C353.031 27.9342 353.17 28.27 353.17 28.62V28.62Z" fill="#E51771" />
    <path opacity="0.3" d="M101.75 1.99993C101.75 2.261 101.673 2.51621 101.528 2.73328C101.382 2.95036 101.176 3.11954 100.935 3.21945C100.694 3.31936 100.429 3.3455 100.172 3.29457C99.9164 3.24364 99.6812 3.11792 99.4966 2.93331C99.312 2.74871 99.1863 2.51351 99.1353 2.25745C99.0844 2.0014 99.1106 1.73599 99.2105 1.49479C99.3104 1.25359 99.4796 1.04743 99.6966 0.90239C99.9137 0.757346 100.169 0.679932 100.43 0.679932C100.779 0.682548 101.113 0.82246 101.36 1.06944C101.607 1.31643 101.747 1.65065 101.75 1.99993V1.99993Z" fill="#E51771" />
    <path opacity="0.3" d="M206.7 71.2599C207.429 71.2599 208.02 70.6689 208.02 69.9399C208.02 69.2109 207.429 68.6199 206.7 68.6199C205.971 68.6199 205.38 69.2109 205.38 69.9399C205.38 70.6689 205.971 71.2599 206.7 71.2599Z" fill="#E51771" />
  </g>
  <path d="M70.23 71.27C82.3306 71.27 92.14 61.4605 92.14 49.36C92.14 37.2594 82.3306 27.45 70.23 27.45C58.1294 27.45 48.32 37.2594 48.32 49.36C48.32 61.4605 58.1294 71.27 70.23 71.27Z" fill="#E51771" />
  <path opacity="0.7" d="M70.23 71.27C82.3306 71.27 92.14 61.4605 92.14 49.36C92.14 37.2594 82.3306 27.45 70.23 27.45C58.1294 27.45 48.32 37.2594 48.32 49.36C48.32 61.4605 58.1294 71.27 70.23 71.27Z" fill="white" />
  <path opacity="0.2" d="M62.68 32.8299C59.6961 32.8208 56.742 33.4232 54 34.5999C50.63 38.3038 48.6297 43.0499 48.3321 48.0487C48.0344 53.0474 49.4572 57.9973 52.3638 62.075C55.2704 66.1527 59.4856 69.1122 64.308 70.4613C69.1305 71.8103 74.2694 71.4675 78.87 69.4899V69.4899C81.7223 66.3466 83.6006 62.4427 84.2769 58.2523C84.9531 54.0619 84.3982 49.7653 82.6796 45.8843C80.9609 42.0032 78.1524 38.7046 74.595 36.389C71.0377 34.0735 66.8846 32.8405 62.64 32.8399L62.68 32.8299Z" fill="#E51771" />
  <path opacity="0.2" d="M60.5 38.6199C60.5 39.0154 60.3827 39.4021 60.1629 39.731C59.9432 40.0599 59.6308 40.3163 59.2654 40.4676C58.8999 40.619 58.4978 40.6586 58.1098 40.5814C57.7219 40.5043 57.3655 40.3138 57.0858 40.0341C56.8061 39.7544 56.6156 39.398 56.5384 39.01C56.4613 38.6221 56.5009 38.22 56.6522 37.8545C56.8036 37.489 57.06 37.1767 57.3889 36.9569C57.7178 36.7372 58.1044 36.6199 58.5 36.6199C59.0304 36.6199 59.5391 36.8306 59.9142 37.2057C60.2893 37.5807 60.5 38.0894 60.5 38.6199Z" fill="#E51771" />
  <path opacity="0.2" d="M84.06 36.6199C84.06 37.0154 83.9427 37.4021 83.7229 37.731C83.5032 38.0599 83.1908 38.3163 82.8254 38.4676C82.4599 38.619 82.0578 38.6586 81.6698 38.5814C81.2818 38.5043 80.9255 38.3138 80.6458 38.0341C80.3661 37.7544 80.1756 37.398 80.0984 37.01C80.0213 36.6221 80.0609 36.22 80.2122 35.8545C80.3636 35.489 80.62 35.1767 80.9488 34.9569C81.2777 34.7372 81.6644 34.6199 82.06 34.6199C82.5904 34.6199 83.0991 34.8306 83.4742 35.2057C83.8493 35.5807 84.06 36.0894 84.06 36.6199Z" fill="#E51771" />
  <path opacity="0.2" d="M80.06 50.8999C80.06 51.5486 79.8676 52.1827 79.5072 52.7221C79.1468 53.2615 78.6345 53.6819 78.0352 53.9302C77.4359 54.1785 76.7764 54.2434 76.1401 54.1168C75.5039 53.9903 74.9194 53.6779 74.4607 53.2192C74.002 52.7605 73.6896 52.176 73.563 51.5398C73.4365 50.9035 73.5014 50.244 73.7497 49.6447C73.9979 49.0453 74.4183 48.5331 74.9577 48.1727C75.4971 47.8122 76.1313 47.6199 76.78 47.6199C77.6499 47.6199 78.4842 47.9654 79.0993 48.5806C79.7144 49.1957 80.06 50.03 80.06 50.8999V50.8999Z" fill="#E51771" />
  <path opacity="0.2" d="M69.64 60.2499C69.64 61.1162 69.3831 61.963 68.9018 62.6833C68.4205 63.4036 67.7365 63.9649 66.9361 64.2965C66.1358 64.628 65.2551 64.7147 64.4055 64.5457C63.5558 64.3767 62.7754 63.9595 62.1629 63.347C61.5503 62.7344 61.1331 61.954 60.9641 61.1044C60.7951 60.2547 60.8819 59.3741 61.2134 58.5737C61.5449 57.7734 62.1063 57.0893 62.8266 56.608C63.5469 56.1268 64.3937 55.8699 65.26 55.8699C66.4216 55.8699 67.5357 56.3313 68.3571 57.1527C69.1785 57.9741 69.64 59.0882 69.64 60.2499V60.2499Z" fill="#E51771" />
  <path d="M329.9 313.646C332.339 303.31 325.938 292.953 315.601 290.513C305.265 288.073 294.908 294.475 292.468 304.811C290.028 315.148 296.43 325.505 306.767 327.944C317.103 330.384 327.46 323.982 329.9 313.646Z" fill="#E51771" />
  <path opacity="0.3" d="M329.9 313.646C332.339 303.31 325.938 292.953 315.601 290.513C305.265 288.073 294.908 294.475 292.468 304.811C290.028 315.148 296.43 325.505 306.767 327.944C317.103 330.384 327.46 323.982 329.9 313.646Z" fill="white" />
  <path opacity="0.4" d="M323.33 294.34C319.067 293.053 314.49 293.287 310.38 295C306.27 296.714 302.883 299.801 300.796 303.735C298.71 307.669 298.055 312.205 298.942 316.569C299.829 320.933 302.203 324.853 305.66 327.66C307.453 328.204 309.316 328.481 311.19 328.48C315.16 328.479 319.032 327.249 322.276 324.96C325.519 322.67 327.974 319.433 329.304 315.693C330.634 311.952 330.774 307.892 329.705 304.069C328.635 300.245 326.408 296.847 323.33 294.34V294.34Z" fill="#E51771" />
  <path d="M292.83 315C272.3 324.66 287.61 332.11 316.54 321.71C343.33 312.08 353.54 299.94 329.54 303.71C330.83 308.76 297.28 321.83 292.83 315Z" fill="#E51771" />
  <path opacity="0.2" d="M323.1 120.83C296.21 139 261.4 163 251.79 220.64H249.74C259.09 163.64 292.63 139.07 319.53 120.83H323.1Z" fill="black" />
  <path d="M184 301.27C167 301.27 150.19 293.6 142 281.08C136.95 273.34 131.08 257.13 148.56 235.5L150.11 236.76C137.75 252.06 135.47 267.41 143.68 279.99C153.68 295.29 177.27 302.99 197.41 297.51C218.04 291.9 230.56 273.96 231.77 248.29C235.9 160.48 282.55 133.43 316.61 113.68C337.78 101.41 353.07 92.5499 349.71 73.8399C349.24 71.2499 348.21 69.4599 346.54 68.3599C342.19 65.4899 333.69 67.4799 323.85 69.7699C304.54 74.2699 278.1 80.4299 262.35 53.6399L264.08 52.6399C279.08 78.1699 303.65 72.4399 323.4 67.8399C333.69 65.4499 342.57 63.3799 347.64 66.7099C349.79 68.1199 351.11 70.3499 351.64 73.5099C355.25 93.5899 338.64 103.23 317.59 115.43C283.92 134.95 237.82 161.68 233.74 248.43C232.48 275.03 219.42 293.64 197.9 299.49C193.366 300.697 188.692 301.296 184 301.27Z" fill="#E51771" />
  <path opacity="0.2" d="M184 301.27C167 301.27 150.19 293.6 142 281.08C136.95 273.34 131.08 257.13 148.56 235.5L150.11 236.76C137.75 252.06 135.47 267.41 143.68 279.99C153.68 295.29 177.27 302.99 197.41 297.51C218.04 291.9 230.56 273.96 231.77 248.29C235.9 160.48 282.55 133.43 316.61 113.68C337.78 101.41 353.07 92.5499 349.71 73.8399C349.24 71.2499 348.21 69.4599 346.54 68.3599C342.19 65.4899 333.69 67.4799 323.85 69.7699C304.54 74.2699 278.1 80.4299 262.35 53.6399L264.08 52.6399C279.08 78.1699 303.65 72.4399 323.4 67.8399C333.69 65.4499 342.57 63.3799 347.64 66.7099C349.79 68.1199 351.11 70.3499 351.64 73.5099C355.25 93.5899 338.64 103.23 317.59 115.43C283.92 134.95 237.82 161.68 233.74 248.43C232.48 275.03 219.42 293.64 197.9 299.49C193.366 300.697 188.692 301.296 184 301.27Z" fill="white" />
  <path d="M241.76 30C246.368 30.0266 250.945 30.7446 255.34 32.13C255.34 32.13 266.34 50.9 267.64 55.2C267.18 59.44 260.03 66.39 260.03 66.39L241.76 30Z" fill="#E51771" />
  <path opacity="0.3" d="M241.76 30C246.368 30.0266 250.945 30.7446 255.34 32.13C255.34 32.13 266.34 50.9 267.64 55.2C267.18 59.44 260.03 66.39 260.03 66.39L241.76 30Z" fill="white" />
  <path d="M274.34 121.13C270.104 115.95 266.241 110.477 262.78 104.75C261.94 103.303 261.143 101.83 260.39 100.33C259.96 99.4799 259.55 98.6299 259.15 97.7699C258.625 96.933 258.218 96.0279 257.94 95.0799C256.74 82.4099 261.08 73.0799 256.94 62.9099L240.46 69.3499C240.46 69.3499 241.86 87.4699 245.06 98.3499C247.06 105.08 251.54 110.9 255.87 116.29C257.22 117.97 258.52 119.7 259.87 121.39C261.22 123.08 262.58 124.45 263.87 126.04C265.82 128.45 266.46 130.76 264.99 133.6L264.74 134.05C264.32 134.79 266.28 135.63 267.52 134.05C269.52 131.47 269.24 131.63 270.98 129.43C272.04 128.1 273.25 126.65 274.3 125.43C274.806 124.83 275.088 124.072 275.095 123.287C275.102 122.502 274.835 121.739 274.34 121.13V121.13Z" fill="#E51771" />
  <path opacity="0.7" d="M274.34 121.13C270.104 115.95 266.241 110.477 262.78 104.75C261.94 103.303 261.143 101.83 260.39 100.33C259.96 99.4799 259.55 98.6299 259.15 97.7699C258.625 96.933 258.218 96.0279 257.94 95.0799C256.74 82.4099 261.08 73.0799 256.94 62.9099L240.46 69.3499C240.46 69.3499 241.86 87.4699 245.06 98.3499C247.06 105.08 251.54 110.9 255.87 116.29C257.22 117.97 258.52 119.7 259.87 121.39C261.22 123.08 262.58 124.45 263.87 126.04C265.82 128.45 266.46 130.76 264.99 133.6L264.74 134.05C264.32 134.79 266.28 135.63 267.52 134.05C269.52 131.47 269.24 131.63 270.98 129.43C272.04 128.1 273.25 126.65 274.3 125.43C274.806 124.83 275.088 124.072 275.095 123.287C275.102 122.502 274.835 121.739 274.34 121.13V121.13Z" fill="white" />
  <path opacity="0.3" d="M270.31 115.92C267.695 118.723 264.792 121.244 261.65 123.44C262.08 123.92 262.5 124.44 262.93 124.9C266.076 122.775 268.933 120.25 271.43 117.39L270.31 115.92Z" fill="#E51771" />
  <path opacity="0.3" d="M274.34 121.13L274.22 120.99C273.45 121.873 273.003 122.99 272.95 124.16C272.886 124.962 273.016 125.769 273.33 126.51L274.28 125.38C274.777 124.786 275.054 124.04 275.064 123.266C275.075 122.492 274.82 121.738 274.34 121.13V121.13Z" fill="#E51771" />
  <path d="M237.84 41.9998C236.053 44.6749 233.91 47.0939 231.47 49.1898C230.117 50.3562 228.634 51.3628 227.05 52.1898C226.218 52.6161 225.356 52.9804 224.47 53.2798L223.79 53.4998L223.57 53.5598L223.1 53.6898C222.811 53.7585 222.516 53.8053 222.22 53.8298C221.376 53.8943 220.528 53.8166 219.71 53.5998C218.679 53.3071 217.69 52.8801 216.77 52.3298C216.03 51.897 215.312 51.4264 214.62 50.9198C213.37 49.9898 212.174 48.9882 211.04 47.9198C208.853 45.8472 206.845 43.5925 205.04 41.1798C204.692 40.7098 204.52 40.1332 204.552 39.5494C204.584 38.9657 204.819 38.4115 205.216 37.9824C205.613 37.5533 206.147 37.2763 206.727 37.1992C207.306 37.122 207.895 37.2496 208.39 37.5598H208.47C210.83 39.0598 213.21 40.6398 215.53 42.0498C216.71 42.7398 217.85 43.4398 218.98 43.9798C219.496 44.2499 220.027 44.4903 220.57 44.6998C220.908 44.8492 221.271 44.9373 221.64 44.9598C221.7 44.9598 221.64 44.8898 221.27 44.8998C221.153 44.8928 221.037 44.8928 220.92 44.8998L220.7 44.9498L221.03 44.7798C221.474 44.5407 221.905 44.277 222.32 43.9898C223.215 43.3589 224.051 42.6494 224.82 41.8698C226.567 40.039 228.203 38.1055 229.72 36.0798C230.551 35.1501 231.699 34.5644 232.94 34.4377C234.181 34.3111 235.424 34.6525 236.425 35.3951C237.427 36.1376 238.115 37.2277 238.355 38.4515C238.594 39.6753 238.368 40.9444 237.72 42.0098L237.84 41.9998Z" fill="#E51771" />
  <path opacity="0.7" d="M237.84 41.9998C236.053 44.6749 233.91 47.0939 231.47 49.1898C230.117 50.3562 228.634 51.3628 227.05 52.1898C226.218 52.6161 225.356 52.9804 224.47 53.2798L223.79 53.4998L223.57 53.5598L223.1 53.6898C222.811 53.7585 222.516 53.8053 222.22 53.8298C221.376 53.8943 220.528 53.8166 219.71 53.5998C218.679 53.3071 217.69 52.8801 216.77 52.3298C216.03 51.897 215.312 51.4264 214.62 50.9198C213.37 49.9898 212.174 48.9882 211.04 47.9198C208.853 45.8472 206.845 43.5925 205.04 41.1798C204.692 40.7098 204.52 40.1332 204.552 39.5494C204.584 38.9657 204.819 38.4115 205.216 37.9824C205.613 37.5533 206.147 37.2763 206.727 37.1992C207.306 37.122 207.895 37.2496 208.39 37.5598H208.47C210.83 39.0598 213.21 40.6398 215.53 42.0498C216.71 42.7398 217.85 43.4398 218.98 43.9798C219.496 44.2499 220.027 44.4903 220.57 44.6998C220.908 44.8492 221.271 44.9373 221.64 44.9598C221.7 44.9598 221.64 44.8898 221.27 44.8998C221.153 44.8928 221.037 44.8928 220.92 44.8998L220.7 44.9498L221.03 44.7798C221.474 44.5407 221.905 44.277 222.32 43.9898C223.215 43.3589 224.051 42.6494 224.82 41.8698C226.567 40.039 228.203 38.1055 229.72 36.0798C230.551 35.1501 231.699 34.5644 232.94 34.4377C234.181 34.3111 235.424 34.6525 236.425 35.3951C237.427 36.1376 238.115 37.2277 238.355 38.4515C238.594 39.6753 238.368 40.9444 237.72 42.0098L237.84 41.9998Z" fill="white" />
  <path d="M201.29 35.4198L202.46 37.4198C202.46 37.4198 203.35 40.0398 205.14 40.5198L210 38.9498L209.75 38.5398C209.13 37.5998 209.2 35.7698 209.41 34.2498C209.62 32.7298 208.84 32.6798 208.26 33.0598C207.849 33.5326 207.56 34.0993 207.42 34.7098C207.181 34.3796 206.917 34.0686 206.63 33.7798L205.15 32.2998C204.84 31.9964 204.426 31.8215 203.992 31.8104C203.558 31.7993 203.136 31.9527 202.81 32.2398L201.61 33.3098C201.325 33.5731 201.139 33.9254 201.08 34.3088C201.022 34.6922 201.096 35.084 201.29 35.4198V35.4198Z" fill="#E51771" />
  <path opacity="0.7" d="M201.29 35.4198L202.46 37.4198C202.46 37.4198 203.35 40.0398 205.14 40.5198L210 38.9498L209.75 38.5398C209.13 37.5998 209.2 35.7698 209.41 34.2498C209.62 32.7298 208.84 32.6798 208.26 33.0598C207.849 33.5326 207.56 34.0993 207.42 34.7098C207.181 34.3796 206.917 34.0686 206.63 33.7798L205.15 32.2998C204.84 31.9964 204.426 31.8215 203.992 31.8104C203.558 31.7993 203.136 31.9527 202.81 32.2398L201.61 33.3098C201.325 33.5731 201.139 33.9254 201.08 34.3088C201.022 34.6922 201.096 35.084 201.29 35.4198V35.4198Z" fill="white" />
  <path d="M246.67 28.22C241.279 29.6488 236.116 31.8267 231.33 34.69C230.583 35.1572 229.997 35.8416 229.651 36.6512C229.304 37.4609 229.213 38.3572 229.39 39.22C231.32 48.66 235.71 61.3 240.45 69.35L262.56 60.2C262.71 56.3 257.34 43.68 251.87 31.48C250.89 29.29 249 27.66 246.67 28.22Z" fill="#E51771" />
  <path opacity="0.8" d="M246.67 28.22C241.279 29.6488 236.116 31.8267 231.33 34.69C230.583 35.1572 229.997 35.8416 229.651 36.6512C229.304 37.4609 229.213 38.3572 229.39 39.22C231.32 48.66 235.71 61.3 240.45 69.35L262.56 60.2C262.71 56.3 257.34 43.68 251.87 31.48C250.89 29.29 249 27.66 246.67 28.22Z" fill="white" />
  <path opacity="0.3" d="M255.3 39.21L250.91 37.74C251.91 40.31 255.44 43.56 257.91 45.47C257.11 43.47 256.22 41.37 255.3 39.21Z" fill="#E51771" />
  <path d="M245.22 18.3199C243.39 14.8399 239.44 13.0899 234.7 13.4799C230.7 13.8199 227.16 17.8999 227.58 20.0999C228 22.2999 231.36 23.2399 232 23.9999L229.23 25.9999C228.902 26.2367 228.625 26.5375 228.416 26.8842C228.207 27.2308 228.071 27.6161 228.015 28.0169C227.959 28.4177 227.984 28.8256 228.09 29.2163C228.196 29.6069 228.379 29.9721 228.63 30.2899C229.8 31.7699 231.34 33.2899 232.23 34.4099C239.89 34.2099 245.56 31.2899 247.61 28.4799C246.84 24.9199 247 21.7799 245.22 18.3199Z" fill="#E51771" />
  <path opacity="0.8" d="M245.22 18.3199C243.39 14.8399 239.44 13.0899 234.7 13.4799C230.7 13.8199 227.16 17.8999 227.58 20.0999C228 22.2999 231.36 23.2399 232 23.9999L229.23 25.9999C228.902 26.2367 228.625 26.5375 228.416 26.8842C228.207 27.2308 228.071 27.6161 228.015 28.0169C227.959 28.4177 227.984 28.8256 228.09 29.2163C228.196 29.6069 228.379 29.9721 228.63 30.2899C229.8 31.7699 231.34 33.2899 232.23 34.4099C239.89 34.2099 245.56 31.2899 247.61 28.4799C246.84 24.9199 247 21.7799 245.22 18.3199Z" fill="white" />
  <path d="M241.46 20.4799C242.004 21.8745 242.122 23.399 241.799 24.8607C241.477 26.3225 240.728 27.6558 239.648 28.6921C238.568 29.7285 237.205 30.4214 235.731 30.6832C234.257 30.945 232.739 30.764 231.368 30.1631C229.997 29.5622 228.835 28.5683 228.029 27.3071C227.223 26.0458 226.809 24.5739 226.839 23.0773C226.869 21.5808 227.342 20.1267 228.198 18.899C229.055 17.6713 230.256 16.7251 231.65 16.1799C233.521 15.4509 235.605 15.4943 237.445 16.3005C239.284 17.1067 240.728 18.6098 241.46 20.4799V20.4799Z" fill="#A30C54" />
  <path d="M306.39 110.6C306.28 107.31 306.13 107.6 306.04 104.83C305.98 103.13 305.97 101.24 305.96 99.61C305.957 98.8359 305.686 98.0867 305.194 97.4891C304.702 96.8914 304.019 96.482 303.26 96.33C301.94 96.06 300.61 95.81 299.26 95.53C297.53 95.16 295.82 94.76 294.13 94.27C292.81 93.89 291.51 93.47 290.22 93C288.93 92.53 287.48 92 286.14 91.38C284.56 90.71 283 89.99 281.46 89.24C279.73 88.42 278.02 87.56 276.31 86.69C269.73 75.8 269.59 68.62 262.53 60.2L247.37 67.06C247.37 67.06 258.51 86.82 266.09 95.2C270.46 100.02 277.31 102.2 283.42 103.78C287.83 104.91 292.3 105.78 296.77 106.61C298.51 106.93 300.4 107.05 301.9 108.09C303.01 108.941 303.771 110.168 304.04 111.54C304.107 111.82 304.167 112.1 304.22 112.38C304.41 113.22 306.46 112.58 306.39 110.6Z" fill="#E51771" />
  <path opacity="0.8" d="M306.39 110.6C306.28 107.31 306.13 107.6 306.04 104.83C305.98 103.13 305.97 101.24 305.96 99.61C305.957 98.8359 305.686 98.0867 305.194 97.4891C304.702 96.8914 304.019 96.482 303.26 96.33C301.94 96.06 300.61 95.81 299.26 95.53C297.53 95.16 295.82 94.76 294.13 94.27C292.81 93.89 291.51 93.47 290.22 93C288.93 92.53 287.48 92 286.14 91.38C284.56 90.71 283 89.99 281.46 89.24C279.73 88.42 278.02 87.56 276.31 86.69C269.73 75.8 269.59 68.62 262.53 60.2L247.37 67.06C247.37 67.06 258.51 86.82 266.09 95.2C270.46 100.02 277.31 102.2 283.42 103.78C287.83 104.91 292.3 105.78 296.77 106.61C298.51 106.93 300.4 107.05 301.9 108.09C303.01 108.941 303.771 110.168 304.04 111.54C304.107 111.82 304.167 112.1 304.22 112.38C304.41 113.22 306.46 112.58 306.39 110.6Z" fill="white" />
  <path opacity="0.3" d="M298.7 95.4C298.1 95.27 297.5 95.14 296.89 94.99C296.94 98.45 295.32 104.41 294.73 106.22L296.63 106.58C297.875 102.978 298.573 99.2092 298.7 95.4V95.4Z" fill="#E51771" />
  <path opacity="0.3" d="M306 99.6099C305.997 98.8372 305.728 98.0892 305.238 97.4917C304.748 96.8943 304.067 96.484 303.31 96.3299L302.31 96.1399C302.471 97.2767 303.052 98.3117 303.94 99.0399C304.511 99.5676 305.195 99.9576 305.94 100.18C306 99.9999 306 99.7999 306 99.6099Z" fill="#E51771" />
  <path d="M240.05 20.5398C240.45 22.0598 238.75 23.6498 237.4 22.3398C236.14 20.9889 234.761 19.7539 233.28 18.6498C231.89 17.7798 233.74 16.2598 235.93 16.8498C236.865 17.0846 237.728 17.5432 238.446 18.1861C239.163 18.8289 239.714 19.6367 240.05 20.5398V20.5398Z" fill="white" />
  <path d="M240.16 68.8598C239.46 69.1198 240.74 70.3198 240.74 70.3198C240.74 70.3198 254.74 65.5298 263.24 60.5998C263.261 60.3013 263.21 60.0023 263.091 59.7274C262.973 59.4526 262.791 59.21 262.56 59.0198C255.285 62.7204 247.807 66.0056 240.16 68.8598V68.8598Z" fill="#E51771" />
  <path opacity="0.5" d="M240.16 68.8598C239.46 69.1198 240.74 70.3198 240.74 70.3198C240.74 70.3198 254.74 65.5298 263.24 60.5998C263.261 60.3013 263.21 60.0023 263.091 59.7274C262.973 59.4526 262.791 59.21 262.56 59.0198C255.285 62.7204 247.807 66.0056 240.16 68.8598V68.8598Z" fill="white" />
  <path d="M250.46 27.5599C253.22 28.9599 255.81 30.4299 258.46 32.0599C259.75 32.8799 261.03 33.7099 262.3 34.6099C263.57 35.5099 264.83 36.4299 266.1 37.4699L266.57 37.8599L267.16 38.3999C267.512 38.7144 267.845 39.0483 268.16 39.3999C268.48 39.7499 268.75 40.0899 269.01 40.3999C269.27 40.7099 269.55 41.0799 269.78 41.3999C270.712 42.6855 271.573 44.0208 272.36 45.3999C273.91 48.0742 275.247 50.8661 276.36 53.7499C276.566 54.2947 276.576 54.894 276.39 55.4458C276.204 55.9976 275.832 56.4679 275.338 56.7766C274.845 57.0854 274.259 57.2136 273.682 57.1395C273.104 57.0653 272.57 56.7934 272.17 56.3699L272.12 56.3099C270.12 54.1799 268.19 51.9399 266.25 49.8499C264.31 47.7599 262.34 45.6399 260.71 44.7099C258.44 43.2999 255.91 41.8899 253.4 40.5099L245.84 36.3099C244.668 35.6893 243.79 34.6284 243.4 33.3607C243.01 32.0929 243.139 30.7221 243.76 29.5499C244.381 28.3776 245.441 27.4999 246.709 27.1098C247.977 26.7198 249.348 26.8493 250.52 27.4699L250.46 27.5599Z" fill="#E51771" />
  <path opacity="0.8" d="M250.46 27.5599C253.22 28.9599 255.81 30.4299 258.46 32.0599C259.75 32.8799 261.03 33.7099 262.3 34.6099C263.57 35.5099 264.83 36.4299 266.1 37.4699L266.57 37.8599L267.16 38.3999C267.512 38.7144 267.845 39.0483 268.16 39.3999C268.48 39.7499 268.75 40.0899 269.01 40.3999C269.27 40.7099 269.55 41.0799 269.78 41.3999C270.712 42.6855 271.573 44.0208 272.36 45.3999C273.91 48.0742 275.247 50.8661 276.36 53.7499C276.566 54.2947 276.576 54.894 276.39 55.4458C276.204 55.9976 275.832 56.4679 275.338 56.7766C274.845 57.0854 274.259 57.2136 273.682 57.1395C273.104 57.0653 272.57 56.7934 272.17 56.3699L272.12 56.3099C270.12 54.1799 268.19 51.9399 266.25 49.8499C264.31 47.7599 262.34 45.6399 260.71 44.7099C258.44 43.2999 255.91 41.8899 253.4 40.5099L245.84 36.3099C244.668 35.6893 243.79 34.6284 243.4 33.3607C243.01 32.0929 243.139 30.7221 243.76 29.5499C244.381 28.3776 245.441 27.4999 246.709 27.1098C247.977 26.7198 249.348 26.8493 250.52 27.4699L250.46 27.5599Z" fill="white" />
  <path d="M278.73 58.7399L277.88 56.6099C277.88 56.6099 277.41 53.8899 275.72 53.1299L270.72 53.9199L270.89 54.3599C271.35 55.3599 271 57.1899 270.55 58.6499C270.1 60.1099 270.86 60.2999 271.5 60.0099C271.86 59.8499 272.21 59.1999 272.59 58.5099C272.776 58.8575 272.987 59.1916 273.22 59.5099L274.45 61.1999C274.707 61.5501 275.087 61.7901 275.514 61.8717C275.94 61.9533 276.382 61.8705 276.75 61.6399L278.11 60.7699C278.428 60.552 278.663 60.2324 278.776 59.8635C278.888 59.4946 278.872 59.0984 278.73 58.7399V58.7399Z" fill="#E51771" />
  <path opacity="0.8" d="M278.73 58.7399L277.88 56.6099C277.88 56.6099 277.41 53.8899 275.72 53.1299L270.72 53.9199L270.89 54.3599C271.35 55.3599 271 57.1899 270.55 58.6499C270.1 60.1099 270.86 60.2999 271.5 60.0099C271.86 59.8499 272.21 59.1999 272.59 58.5099C272.776 58.8575 272.987 59.1916 273.22 59.5099L274.45 61.1999C274.707 61.5501 275.087 61.7901 275.514 61.8717C275.94 61.9533 276.382 61.8705 276.75 61.6399L278.11 60.7699C278.428 60.552 278.663 60.2324 278.776 59.8635C278.888 59.4946 278.872 59.0984 278.73 58.7399V58.7399Z" fill="white" />
  <path opacity="0.3" d="M246.24 39.0598L245.02 39.1598L237.53 57.2398C237.939 57.2693 238.351 57.2355 238.75 57.1398C238.75 57.1398 248.51 53.4998 251.46 52.1398C249.48 48.0498 246.24 39.0598 246.24 39.0598Z" fill="#E51771" />
  <path d="M232.57 43.7999C233.48 48.5261 235.17 53.0681 237.57 57.2399C241.23 55.9799 247.33 53.5999 250.29 52.2399C248.3 47.9748 246.535 43.6089 245 39.1599C241.87 39.3699 235 41.9999 232.57 43.7999Z" fill="white" />
  <path opacity="0.3" d="M240 47.7098C239.854 48.1989 239.566 48.6335 239.173 48.9589C238.779 49.2842 238.298 49.4856 237.791 49.5375C237.283 49.5894 236.771 49.4896 236.32 49.2506C235.869 49.0116 235.499 48.6442 235.257 48.1949C235.015 47.7456 234.911 47.2345 234.96 46.7264C235.008 46.2183 235.206 45.736 235.529 45.3404C235.851 44.9448 236.284 44.6538 236.772 44.5042C237.26 44.3546 237.781 44.3531 238.27 44.4998C238.925 44.6965 239.475 45.145 239.799 45.7469C240.124 46.3487 240.196 47.0548 240 47.7098V47.7098Z" fill="#E51771" />
  <path opacity="0.6" d="M241.91 44.2698C241.871 44.4367 241.782 44.588 241.656 44.7037C241.53 44.8194 241.371 44.8942 241.201 44.9182C241.032 44.9422 240.859 44.9143 240.705 44.8383C240.551 44.7622 240.424 44.6414 240.341 44.4919C240.257 44.3423 240.22 44.1709 240.236 44.0002C240.251 43.8295 240.318 43.6674 240.427 43.5353C240.536 43.4031 240.683 43.307 240.847 43.2597C241.012 43.2123 241.187 43.2158 241.35 43.2698C241.553 43.3346 241.723 43.4739 241.827 43.6595C241.931 43.8451 241.961 44.0632 241.91 44.2698Z" fill="#E51771" />
  <path opacity="0.6" d="M244.15 43.3998C244.127 43.5158 244.079 43.6256 244.011 43.7223C243.942 43.8189 243.855 43.9001 243.753 43.9608C243.651 44.0216 243.538 44.0604 243.421 44.0749C243.303 44.0893 243.184 44.0791 243.071 44.0448C242.958 44.0106 242.853 43.953 242.763 43.8759C242.673 43.7987 242.6 43.7037 242.55 43.5968C242.499 43.49 242.471 43.3737 242.467 43.2554C242.464 43.1371 242.485 43.0194 242.53 42.9098C242.562 42.804 242.615 42.7055 242.685 42.6201C242.755 42.5346 242.841 42.4638 242.939 42.4118C243.036 42.3598 243.143 42.3275 243.253 42.3169C243.363 42.3062 243.474 42.3174 243.58 42.3498C243.794 42.4146 243.974 42.5612 244.081 42.7578C244.187 42.9543 244.212 43.185 244.15 43.3998V43.3998Z" fill="#E51771" />
  <path opacity="0.5" d="M247.29 51.1899L238.04 54.8399L237.49 53.0199L246.73 49.3699L247.29 51.1899Z" fill="#E51771" />
  <path opacity="0.2" d="M196.26 190.17C196.239 195.993 195.676 201.801 194.58 207.52C193.4 212.66 191.567 216.42 189.08 218.8C187.922 219.95 186.546 220.858 185.034 221.47C183.521 222.083 181.902 222.389 180.27 222.37C175.13 222.37 171.207 219.567 168.5 213.96C168.024 212.953 167.62 211.914 167.29 210.85C161.574 215.76 156.251 221.109 151.37 226.85L146.06 233.11C148.918 236.006 152.215 238.433 155.83 240.3C162.057 243.52 170.23 245.133 180.35 245.14C182.13 245.14 183.85 245.09 185.52 244.99C191.643 235.931 196.709 226.201 200.62 215.99L215.47 177.27L196.26 190.17Z" fill="black" />
  <path d="M62.39 243L79.89 260.5L128.89 214.33C112 207.88 79.16 226.19 62.39 243Z" fill="#A30C54" />
  <path d="M123.42 304C117.83 298.4 105.92 286.5 105.92 286.5L152.09 237.5C158.5 254.35 140.19 287.22 123.42 304Z" fill="#A30C54" />
  <path d="M190.4 193.7L209.49 156.89L172.68 176C160.856 182.132 149.939 189.872 140.24 199L77.49 258.07L108.32 288.9L167.39 226.15C176.522 216.448 184.266 205.528 190.4 193.7V193.7Z" fill="#E51771" />
  <path opacity="0.6" d="M190.4 193.7L209.49 156.89L172.68 176C160.856 182.132 149.939 189.872 140.24 199L77.49 258.07L108.32 288.9L167.39 226.15C176.522 216.448 184.266 205.528 190.4 193.7V193.7Z" fill="white" />
  <path d="M151.2 228.08C158.324 228.08 164.1 222.304 164.1 215.18C164.1 208.055 158.324 202.28 151.2 202.28C144.076 202.28 138.3 208.055 138.3 215.18C138.3 222.304 144.076 228.08 151.2 228.08Z" fill="white" />
  <path d="M151.2 223.47C155.778 223.47 159.49 219.758 159.49 215.18C159.49 210.601 155.778 206.89 151.2 206.89C146.622 206.89 142.91 210.601 142.91 215.18C142.91 219.758 146.622 223.47 151.2 223.47Z" fill="#E51771" />
  <path opacity="0.3" d="M118.75 277.82L88.56 247.63L113.28 224.37L142.01 253.11L118.75 277.82Z" fill="#E51771" />
  <path d="M69.22 270.62C46.62 272.45 39.13 286.92 36.57 306.15C35.27 315.96 34.69 325.89 26.46 331.63C25.9649 331.966 25.5921 332.454 25.3975 333.02C25.2029 333.586 25.1969 334.2 25.3805 334.77C25.564 335.34 25.9272 335.835 26.4157 336.181C26.9041 336.527 27.4916 336.706 28.09 336.69C58.43 335.74 72.58 320.89 74.36 314.69C73.8928 317.931 73.0574 321.108 71.87 324.16C71.6517 324.698 71.609 325.292 71.7479 325.856C71.8867 326.42 72.2001 326.926 72.6434 327.302C73.0867 327.678 73.6372 327.904 74.2166 327.948C74.7959 327.993 75.3746 327.853 75.87 327.55C84.38 322.22 95.06 312.4 95.77 296.47C89.51 287.6 69.22 270.62 69.22 270.62Z" fill="#E51771" />
  <path opacity="0.2" d="M69.22 270.62C46.62 272.45 39.13 286.92 36.57 306.15C35.27 315.96 34.69 325.89 26.46 331.63C25.9649 331.966 25.5921 332.454 25.3975 333.02C25.2029 333.586 25.1969 334.2 25.3805 334.77C25.564 335.34 25.9272 335.835 26.4157 336.181C26.9041 336.527 27.4916 336.706 28.09 336.69C58.43 335.74 72.58 320.89 74.36 314.69C73.8928 317.931 73.0574 321.108 71.87 324.16C71.6517 324.698 71.609 325.292 71.7479 325.856C71.8867 326.42 72.2001 326.926 72.6434 327.302C73.0867 327.678 73.6372 327.904 74.2166 327.948C74.7959 327.993 75.3746 327.853 75.87 327.55C84.38 322.22 95.06 312.4 95.77 296.47C89.51 287.6 69.22 270.62 69.22 270.62Z" fill="white" />
  <path d="M99.28 303.3L63.08 267.1L82.36 262.93L103.45 284.02L99.28 303.3Z" fill="#E51771" />
</svg>
